<svg width="81" height="95" viewBox="0 0 81 95" fill="none" xmlns="http://www.w3.org/2000/svg">
<g clip-path="url(#clip0)">
<path d="M20.8 76.064H21.6C23.8 76.164 26 76.664 28.2 77.264C27.1 77.564 26 77.764 24.9 77.964C23.9 78.164 23 78.264 22.1 78.364C20.3 78.664 18.4 78.864 16.5 79.264C15.6 79.464 14.7 79.664 13.9 79.964C14.5 80.164 15 80.364 15.6 80.564C17.2 80.964 18.9 81.364 20.5 81.664C22.6 82.164 24.8 82.564 27 82.964C29.1 83.364 31.2 83.864 33.3 84.264C35.3 84.664 37.3 85.164 39.3 85.764C39.9 85.864 40.4 86.064 41 86.264C41.3 86.364 41.7 86.564 41.9 86.764C42.1 86.964 42.2 87.164 42.4 87.364C42.5 87.464 42.6 87.664 42.7 87.864C43.5 89.564 42 91.164 40.5 91.664C38.6 92.264 36.6 92.464 34.7 92.764C32.5 93.064 30.3 93.264 28.1 93.464C26 93.664 24 93.864 22 93.964C19.8 94.064 17.5 94.164 15.2 94.264C12.8 94.364 10.5 94.564 8.1 94.464H8.8C7.2 94.464 5.7 94.264 4.2 93.964C2.8 93.664 1.4 93.264 0 92.864C1.6 91.764 3.3 90.864 5.1 90.264C6.1 89.864 7.2 89.564 8.3 89.364C9.3 89.164 10.2 89.064 11.2 89.064C13.2 89.064 15.2 88.964 17.3 88.964C19.7 88.864 22 88.764 24.4 88.664C26.5 88.564 28.5 88.364 30.6 88.164C31.1 88.064 31.7 88.064 32.2 87.964C28.5 86.864 24.7 85.964 21 85.164C20 84.864 18.9 84.664 17.8 84.364C17.3 84.264 16.9 84.064 16.4 83.964C15.7 83.764 14.9 83.564 14.2 83.264C13.5 83.064 12.8 82.764 12.1 82.364L11.2 81.764C10.9 81.464 10.7 81.264 10.5 80.964C9.8 79.964 10.3 78.364 11.4 77.764C12.5 77.164 13.7 76.864 15 76.564C16.8 76.164 18.7 75.864 20.8 76.064ZM68 0H68.6C69.9 0.1 71.1 0.5 72.2 1.3C73.5 2.3 74.7 3.4 75.9 4.5C76.6 5.1 77.3 5.6 77.9 6.2C78.2 6.4 78.5 6.7 78.8 7C79.2 7.4 79.7 7.8 80 8.2C80.2 8.4 80.3 8.6 80.4 8.8C80.5 9 80.6 9.3 80.7 9.5C80.8 10 80.9 10.4 80.8 10.9C80.7 11.4 80.6 11.8 80.4 12.3C80 13.1 79.5 13.9 79 14.7C78.5 15.4 78 16.2 77.5 16.9C77 17.7 76.5 18.4 76 19.2C75 20.7 74 22.2 72.9 23.7C70.7 26.6 68.2 29.5 65.9 32.4C64.7 33.8 63.5 35.3 62.4 36.7C61.3 38.1 60.2 39.6 59.1 41C56.9 43.8 54.6 46.6 52.2 49.4C50.9 51 49.7 52.5 48.4 54C47.3 55.3 46.3 56.6 45.3 58C45.2 58.2 45.2 58.3 45.1 58.5C45 58.7 45 58.9 44.9 59.1C44.7 59.3 44.5 59.6 44.2 59.8C43.9 60 43.5 60.1 43.2 60.2C42.6 60.4 42.1 60.6 41.6 60.8C40.6 61.2 39.5 61.6 38.5 62C36.3 62.9 34 63.7 31.8 64.5C30.9 64.8 30.1 65.2 29.2 65.5C28.9 65.6 28.5 65.8 28.1 65.9C27.9 66 27.7 66 27.5 66.1C27.4 66.1 27.2 66.2 27.1 66.2C26.7 66.3 26.4 66.3 26 66.3C25.2 66.2 24.5 65.7 24.2 64.9C24 64.5 24 64 24 63.6C24 63.1 24 62.6 24.1 62.1C24.2 61.3 24.4 60.5 24.6 59.7C24.8 58.7 25.1 57.7 25.4 56.7C25.6 55.8 25.9 55 26.3 54.2C27.1 52.5 27.9 50.9 28.9 49.3C29.4 51.9 29.6 54.5 29.3 57.2C29.1 58.4 28.9 59.6 28.6 60.8C28.5 61.1 28.4 61.5 28.3 61.8C28.9 61.6 29.4 61.4 30 61.2C31.5 60.6 33.1 60 34.6 59.5C36 59 37.3 58.5 38.7 58C39.5 57.8 40.2 57.5 40.9 57.3C41.3 57.2 41.6 57.1 42 57C42.1 56.9 42.1 56.9 42.1 56.8C42.3 56.4 42.5 56 42.8 55.6C43.2 55.1 43.5 54.6 43.9 54.1C44.7 53.1 45.4 52.1 46.2 51.1C47.8 49.1 49.4 47.2 51 45.2C53.4 42.3 55.6 39.4 57.9 36.4L61.2 32.2C62.4 30.8 63.5 29.3 64.7 27.9C67 25.1 69.5 22.4 71.7 19.5L74.7 15.3C75.6 13.9 76.6 12.6 77.6 11.2C77.8 10.8 78 10.5 78.2 10.1V10C78.1 9.8 78 9.6 77.8 9.4C77.4 8.9 76.8 8.4 76.3 7.9C75.6 7.4 74.9 6.8 74.2 6.2C73 5.1 71.9 4 70.6 3.1L70 2.8C69.6 2.7 69.3 2.6 68.9 2.6H68.8C68.8 2.7 68.7 2.7 68.7 2.7C67.6 3.8 66.7 5.1 65.8 6.3C64.8 7.5 63.9 8.7 62.9 9.9C60.9 12.3 58.9 14.7 57 17.1C55.8 18.6 54.6 20 53.4 21.5L50.1 25.4C49 26.7 47.9 28.1 46.8 29.3C46.2 30 45.6 30.6 45 31.2C44.4 31.9 43.8 32.6 43.3 33.3C42.3 34.6 41.4 35.9 40.4 37.2C39.4 38.6 38.1 39.9 37.1 41.3C36.5 42.1 36.1 42.8 35.5 43.5C35 44.1 34.4 44.8 33.8 45.4C32.7 46.6 31.6 47.7 30.4 48.7C30 49 29.7 49.3 29.3 49.6C29.9 48.1 30.4 46.6 31.1 45.1C31.8 43.5 32.8 42 33.8 40.5C33.729 40.642 33.708 40.734 33.667 40.81C34.237 40.04 34.722 39.27 35.3 38.5C35.8 37.8 36.4 37.2 36.9 36.5C38 35.1 38.9 33.8 39.9 32.4C40.9 30.9 41.9 29.5 43.1 28.2C44.2 27 45.2 25.8 46.2 24.5C47.3 23.1 48.4 21.7 49.6 20.4C50.8 19 51.9 17.6 53.1 16.2C55.4 13.5 57.8 10.7 60.1 8C61.3 6.6 62.5 5.1 63.7 3.7C64.2 3 64.8 2.3 65.4 1.7C65.5 1.5 65.7 1.4 65.9 1.2C66.1 1 66.4 0.7 66.7 0.5C67.1 0.3 67.6 0 68 0V0ZM77.6 9.7L77.7 9.8L77.6 9.7ZM77.3 11.5C77.3 11.55 77.275 11.575 77.25 11.6L77.3 11.5ZM77.25 11.6L77.2 11.7C77.2 11.65 77.225 11.625 77.25 11.6ZM79.1 14.55C79.075 14.6 79.05 14.65 79 14.7L79.1 14.55ZM79.2 14.4L79.1 14.55C79.125 14.5 79.15 14.45 79.2 14.4Z" fill="#E74C3C"/>
<path d="M31.1 48C31.2 48.4 31.2 48.8 31.3 49.1C31.5 49.6 31.7 50.1 32 50.6C32.2 51.1 32.6 51.5 32.9 51.9C33.3 52.4 33.8 52.9 34.2 53.4L34 53.2C34.6 53.9 35.2 54.5 35.9 55C36.7 55.6 37.6 56.1 38.5 56.5C39.8 57.1 41.2 57.6 42.6 58C42.2 55.2 40.8 52.5 38.6 50.7C37.4 49.7 36.1 49.1 34.6 48.7C34.1 48.6 33.5 48.5 33 48.5C32.6 48.4 32.1 48.4 31.7 48.3C31.5 48.1 31.3 48.1 31.1 48C31.2 48 31.1 48 31.1 48ZM74.8 3.39999C73.9 5.59999 73 7.79999 71.8 9.99999C71.1 11 70.4 12 69.6 13C69 13.8 68.3 14.7 67.6 15.5L61.3 23.3C59.2 25.8 57.2 28.4 55.1 30.9C53.1 33.3 51.2 35.8 49.2 38.3C48.2 39.6 47.2 40.9 46.1 42.2C45 43.5 43.8 44.7 42.6 45.8C41.4 46.9 40.2 47.9 38.9 48.9C39.5 47.4 40.1 46 40.9 44.6C41.8 43.1 42.7 41.6 43.8 40.3C45.7 37.8 47.7 35.3 49.6 32.8C51.6 30.3 53.5 27.8 55.5 25.4L61.8 17.6C63.8 15.1 65.8 12.7 67.8 10.2C69.8 7.69999 72.2 5.29999 74.8 3.39999C74.9 3.39999 74.9 3.39999 74.8 3.39999Z" fill="#E74C3C"/>
</g>
<defs>
<clipPath id="clip0">
<rect width="81" height="95" fill="white"/>
</clipPath>
</defs>
</svg>
